<svg width="170" height="77" viewBox="0 0 170 77" fill="none" xmlns="http://www.w3.org/2000/svg">
<path d="M46.9372 33.5274C46.9372 34.5748 46.5608 35.4749 45.8079 36.2277C45.0878 36.9478 44.2041 37.3079 43.1567 37.3079C42.1093 37.3079 41.2091 36.9478 40.4563 36.2277C39.7362 35.4749 39.3762 34.5748 39.3762 33.5274C39.3762 32.4799 39.7362 31.5962 40.4563 30.8761C41.2091 30.1233 42.1093 29.7468 43.1567 29.7468C44.2041 29.7468 45.0878 30.1233 45.8079 30.8761C46.5608 31.5962 46.9372 32.4799 46.9372 33.5274ZM37.756 55.3757C37.756 56.9468 36.774 57.7324 34.8101 57.7324C32.8789 57.7324 31.9134 56.9468 31.9134 55.3757V18.3562C31.9134 16.7851 32.8789 15.9996 34.8101 15.9996C36.774 15.9996 37.756 16.7851 37.756 18.3562V55.3757ZM27.1509 33.9692C27.1509 38.7153 26.038 42.8068 23.8123 46.2436C21.6193 49.6804 18.6243 51.3988 14.8274 51.3988C11.0633 51.3988 8.05199 49.6968 5.7935 46.2927C3.53502 42.8886 2.40578 38.7808 2.40578 33.9692C2.40578 29.1577 3.53502 25.0499 5.7935 21.6458C8.05199 18.2417 11.0633 16.5396 14.8274 16.5396C18.657 16.5396 21.6684 18.258 23.8614 21.6949C26.0544 25.099 27.1509 29.1904 27.1509 33.9692ZM21.4065 33.9692C21.4065 30.4669 20.8337 27.5211 19.6881 25.1317C18.5752 22.7095 16.955 21.4985 14.8274 21.4985C12.7653 21.4985 11.1451 22.7095 9.96679 25.1317C8.82118 27.5211 8.24838 30.4669 8.24838 33.9692C8.24838 37.4715 8.82118 40.4337 9.96679 42.8559C11.1451 45.2453 12.7653 46.44 14.8274 46.44C16.955 46.44 18.5752 45.2453 19.6881 42.8559C20.8337 40.4337 21.4065 37.4715 21.4065 33.9692ZM86.0978 55.3757C86.0978 56.9468 85.1158 57.7324 83.1519 57.7324C81.2208 57.7324 80.2552 56.9468 80.2552 55.3757V18.3562C80.2552 16.7851 81.2208 15.9996 83.1519 15.9996C85.1158 15.9996 86.0978 16.7851 86.0978 18.3562V55.3757ZM73.5288 33.9692C73.5288 38.7153 72.416 42.8068 70.1902 46.2436C67.9972 49.6804 65.0022 51.3988 61.2054 51.3988C57.4412 51.3988 54.4299 49.6968 52.1714 46.2927C49.913 42.8886 48.7837 38.7808 48.7837 33.9692C48.7837 29.1577 49.913 25.0499 52.1714 21.6458C54.4299 18.2417 57.4412 16.5396 61.2054 16.5396C65.035 16.5396 68.0463 18.258 70.2393 21.6949C72.4323 25.099 73.5288 29.1904 73.5288 33.9692ZM67.7844 33.9692C67.7844 30.4669 67.2116 27.5211 66.066 25.1317C64.9531 22.7095 63.3329 21.4985 61.2054 21.4985C59.1433 21.4985 57.5231 22.7095 56.3447 25.1317C55.1991 27.5211 54.6263 30.4669 54.6263 33.9692C54.6263 37.4715 55.1991 40.4337 56.3447 42.8559C57.5231 45.2453 59.1433 46.44 61.2054 46.44C63.3329 46.44 64.9531 45.2453 66.066 42.8559C67.2116 40.4337 67.7844 37.4715 67.7844 33.9692ZM126.688 33.9692C127.736 35.1803 127.507 36.3586 126.001 37.5042C124.495 38.6499 123.235 38.6171 122.22 37.4061L109.75 22.6277L97.279 37.4061C96.2643 38.6171 95.0041 38.6499 93.4985 37.5042C92.0255 36.3586 91.7964 35.1803 92.8111 33.9692L106.902 17.2761C107.688 16.3596 108.637 16.1468 109.75 16.6378C110.83 16.1468 111.779 16.3596 112.597 17.2761L126.688 33.9692ZM112.696 50.0732C112.696 50.826 112.466 51.5134 112.008 52.1353C111.583 52.7245 110.781 53.019 109.602 53.019H93.0566C91.8128 53.019 91.1909 52.2008 91.1909 50.5642C91.2236 48.8949 91.8455 48.0602 93.0566 48.0602H106.411C106.64 48.0602 106.771 48.0111 106.804 47.9129C106.837 47.8147 106.853 47.7002 106.853 47.5692V36.1295C106.853 34.5584 107.819 33.7728 109.75 33.7728C111.714 33.7728 112.696 34.5584 112.696 36.1295V50.0732ZM162.243 51.8898C162.243 54.4429 161.195 56.6195 159.1 58.4198C157.038 60.2527 154.518 61.1692 151.539 61.1692C148.528 61.1692 145.975 60.2691 143.88 58.4689C141.785 56.6686 140.738 54.4756 140.738 51.8898C140.738 49.304 141.785 47.111 143.88 45.3107C145.222 44.1324 146.777 43.3468 148.544 42.9541V41.6284C148.544 41.4975 148.528 41.3829 148.495 41.2848C148.463 41.1866 148.332 41.1375 148.103 41.1375H130.133C128.922 41.1375 128.3 40.3355 128.267 38.7317C128.267 37.0951 128.889 36.2768 130.133 36.2768H151.294C152.472 36.2768 153.274 36.5878 153.7 37.2097C154.158 37.7988 154.387 38.4698 154.387 39.2227V42.9541C156.155 43.3468 157.726 44.1488 159.1 45.3598C161.195 47.1601 162.243 49.3367 162.243 51.8898ZM134.404 22.0385C133.193 22.0385 132.571 21.2202 132.539 19.5837C132.539 17.9144 133.161 17.0797 134.404 17.0797H163.175C164.452 17.0797 165.074 17.9144 165.041 19.5837C165.041 21.2202 164.419 22.0385 163.175 22.0385H134.404ZM145.893 31.1216C145.893 31.8744 145.664 32.5618 145.206 33.1837C144.78 33.7728 143.978 34.0674 142.8 34.0674H134.355C133.111 34.0674 132.49 33.2491 132.49 31.6125C132.522 29.9432 133.144 29.1086 134.355 29.1086H139.609C139.838 29.1086 139.969 29.0595 140.001 28.9613C140.034 28.8631 140.051 28.7485 140.051 28.6176V25.1317C140.051 23.5606 141.016 22.775 142.947 22.775C144.911 22.775 145.893 23.5606 145.893 25.1317V31.1216ZM154.78 34.0674C153.601 34.0674 152.783 33.7728 152.325 33.1837C151.899 32.5618 151.687 31.8744 151.687 31.1216V25.1317C151.687 23.5606 152.652 22.775 154.583 22.775C156.547 22.775 157.529 23.5606 157.529 25.1317V28.6176C157.529 28.7485 157.546 28.8631 157.578 28.9613C157.611 29.0595 157.742 29.1086 157.971 29.1086H163.175C164.387 29.1086 164.992 29.9432 164.992 31.6125C165.025 33.2491 164.419 34.0674 163.175 34.0674H154.78ZM156.4 51.8898C156.4 50.7115 155.925 49.7132 154.976 48.8949C154.027 48.0438 152.881 47.6183 151.539 47.6183C150.197 47.6183 149.052 48.0438 148.103 48.8949C147.153 49.7132 146.679 50.7115 146.679 51.8898C146.679 53.0681 147.153 54.0828 148.103 54.9338C149.052 55.7521 150.197 56.1613 151.539 56.1613C152.881 56.1613 154.027 55.7521 154.976 54.9338C155.925 54.0828 156.4 53.0681 156.4 51.8898Z" fill="white"/>
<path d="M34.7487 12.1219C34.1073 11.9385 33.4894 11.6811 32.9076 11.3547C31.902 10.8396 30.9519 10.2226 30.0722 9.51359C29.0885 8.73833 28.2115 7.83655 27.4639 6.83165C26.7764 5.89709 26.4006 4.76977 26.3899 3.60962C26.3919 3.14879 26.4882 2.69325 26.6729 2.27105C26.8576 1.84885 27.1268 1.46895 27.4639 1.15475C27.7842 0.801467 28.1729 0.517005 28.6065 0.318657C29.0402 0.120309 29.5096 0.0122192 29.9863 0.000958641C30.6552 -0.0106727 31.3162 0.147703 31.9072 0.461247C32.4409 0.748356 32.9107 1.14089 33.2881 1.61504C33.6826 2.01041 33.9955 2.47963 34.2087 2.99591C34.418 3.36308 34.5966 3.74694 34.7426 4.14356C34.7672 3.74435 34.8716 3.35413 35.0495 2.99591C35.3111 2.53004 35.6196 2.09203 35.97 1.68868C36.3866 1.22428 36.8809 0.835933 37.4307 0.541031C38.0295 0.172396 38.7222 -0.0151648 39.4253 0.000958641C39.903 0.0113918 40.3736 0.119083 40.8084 0.317458C41.2431 0.515832 41.6328 0.800726 41.9538 1.15475C42.3099 1.45813 42.5971 1.83409 42.796 2.25747C42.995 2.68085 43.1012 3.14186 43.1076 3.60962C43.0897 4.78164 42.6839 5.91468 41.9538 6.83165C41.2464 7.8443 40.3945 8.74787 39.4253 9.51359C38.5425 10.2214 37.5905 10.8383 36.5838 11.3547C36.0038 11.6806 35.388 11.9381 34.7487 12.1219Z" fill="white"/>
<path d="M83.2325 12.1219C82.5911 11.9385 81.9732 11.6811 81.3913 11.3547C80.3858 10.8396 79.4357 10.2226 78.556 9.51359C77.5723 8.73833 76.6952 7.83655 75.9477 6.83165C75.2602 5.89709 74.8844 4.76977 74.8737 3.60962C74.8756 3.14879 74.9719 2.69325 75.1566 2.27105C75.3413 1.84885 75.6106 1.46895 75.9477 1.15475C76.2679 0.801467 76.6567 0.517005 77.0903 0.318657C77.5239 0.120309 77.9933 0.0122192 78.47 0.000958641C79.139 -0.0106727 79.8 0.147703 80.391 0.461247C80.9247 0.748356 81.3945 1.14089 81.7719 1.61504C82.1664 2.01041 82.4792 2.47963 82.6924 2.99591C82.9017 3.36308 83.0803 3.74694 83.2264 4.14356C83.251 3.74435 83.3553 3.35413 83.5332 2.99591C83.7949 2.53004 84.1034 2.09203 84.4538 1.68868C84.8704 1.22428 85.3647 0.835933 85.9145 0.541031C86.5133 0.172396 87.206 -0.0151648 87.909 0.000958641C88.3868 0.0113918 88.8574 0.119083 89.2921 0.317458C89.7269 0.515832 90.1166 0.800726 90.4376 1.15475C90.7937 1.45813 91.0808 1.83409 91.2798 2.25747C91.4788 2.68085 91.585 3.14186 91.5913 3.60962C91.5734 4.78164 91.1677 5.91468 90.4376 6.83165C89.7302 7.8443 88.8783 8.74787 87.909 9.51359C87.0263 10.2214 86.0743 10.8383 85.0675 11.3547C84.4876 11.6806 83.8718 11.9381 83.2325 12.1219Z" fill="white"/>
</svg>
