<svg width="108" height="40" viewBox="0 0 108 40" fill="none" xmlns="http://www.w3.org/2000/svg">
<path d="M29.6048 16.2914C29.6048 16.9521 29.3674 17.5198 28.8925 17.9946C28.4384 18.4488 27.8809 18.6759 27.2203 18.6759C26.5597 18.6759 25.9919 18.4488 25.5171 17.9946C25.0629 17.5198 24.8358 16.9521 24.8358 16.2914C24.8358 15.6308 25.0629 15.0734 25.5171 14.6192C25.9919 14.1443 26.5597 13.9069 27.2203 13.9069C27.8809 13.9069 28.4384 14.1443 28.8925 14.6192C29.3674 15.0734 29.6048 15.6308 29.6048 16.2914ZM23.8139 30.0719C23.8139 31.0628 23.1945 31.5583 21.9559 31.5583C20.7378 31.5583 20.1288 31.0628 20.1288 30.0719V6.72251C20.1288 5.73155 20.7378 5.23607 21.9559 5.23607C23.1945 5.23607 23.8139 5.73155 23.8139 6.72251V30.0719ZM17.1249 16.5701C17.1249 19.5636 16.423 22.1442 15.0192 24.312C13.636 26.4797 11.7469 27.5635 9.35214 27.5635C6.97798 27.5635 5.07865 26.49 3.65415 24.3429C2.22965 22.1959 1.5174 19.6049 1.5174 16.5701C1.5174 13.5353 2.22965 10.9444 3.65415 8.79732C5.07865 6.65025 6.97798 5.57671 9.35214 5.57671C11.7676 5.57671 13.6669 6.66057 15.0501 8.82829C16.4333 10.9754 17.1249 13.556 17.1249 16.5701ZM13.5018 16.5701C13.5018 14.3611 13.1405 12.5031 12.4179 10.996C11.716 9.46828 10.6941 8.70442 9.35214 8.70442C8.05151 8.70442 7.02959 9.46828 6.28637 10.996C5.5638 12.5031 5.20252 14.3611 5.20252 16.5701C5.20252 18.7791 5.5638 20.6475 6.28637 22.1752C7.02959 23.6823 8.05151 24.4358 9.35214 24.4358C10.6941 24.4358 11.716 23.6823 12.4179 22.1752C13.1405 20.6475 13.5018 18.7791 13.5018 16.5701ZM54.3046 30.0719C54.3046 31.0628 53.6853 31.5583 52.4466 31.5583C51.2286 31.5583 50.6195 31.0628 50.6195 30.0719V6.72251C50.6195 5.73155 51.2286 5.23607 52.4466 5.23607C53.6853 5.23607 54.3046 5.73155 54.3046 6.72251V30.0719ZM46.377 16.5701C46.377 19.5636 45.6751 22.1442 44.2712 24.312C42.888 26.4797 40.999 27.5635 38.6042 27.5635C36.23 27.5635 34.3307 26.49 32.9062 24.3429C31.4817 22.1959 30.7695 19.6049 30.7695 16.5701C30.7695 13.5353 31.4817 10.9444 32.9062 8.79732C34.3307 6.65025 36.23 5.57671 38.6042 5.57671C41.0196 5.57671 42.919 6.66057 44.3022 8.82829C45.6854 10.9754 46.377 13.556 46.377 16.5701ZM42.7538 16.5701C42.7538 14.3611 42.3925 12.5031 41.67 10.996C40.968 9.46828 39.9461 8.70442 38.6042 8.70442C37.3036 8.70442 36.2816 9.46828 35.5384 10.996C34.8159 12.5031 34.4546 14.3611 34.4546 16.5701C34.4546 18.7791 34.8159 20.6475 35.5384 22.1752C36.2816 23.6823 37.3036 24.4358 38.6042 24.4358C39.9461 24.4358 40.968 23.6823 41.67 22.1752C42.3925 20.6475 42.7538 18.7791 42.7538 16.5701ZM79.9064 16.5701C80.5671 17.334 80.4225 18.0772 79.4729 18.7998C78.5232 19.5223 77.7284 19.5017 77.0884 18.7378L69.2227 9.41667L61.357 18.7378C60.717 19.5017 59.9222 19.5223 58.9725 18.7998C58.0435 18.0772 57.899 17.334 58.5389 16.5701L67.4266 6.04122C67.9221 5.46317 68.5208 5.32898 69.2227 5.63865C69.904 5.32898 70.5027 5.46317 71.0188 6.04122L79.9064 16.5701ZM71.0807 26.7274C71.0807 27.2023 70.9362 27.6358 70.6472 28.028C70.3788 28.3997 69.873 28.5855 69.1298 28.5855H58.6938C57.9093 28.5855 57.517 28.0693 57.517 27.0371C57.5377 25.9842 57.9299 25.4578 58.6938 25.4578H67.1169C67.2614 25.4578 67.344 25.4268 67.3646 25.3649C67.3853 25.3029 67.3956 25.2307 67.3956 25.1481V17.9327C67.3956 16.9417 68.0046 16.4463 69.2227 16.4463C70.4614 16.4463 71.0807 16.9417 71.0807 17.9327V26.7274ZM102.332 27.8732C102.332 29.4835 101.671 30.8564 100.35 31.9919C99.0491 33.148 97.4594 33.726 95.5807 33.726C93.6814 33.726 92.0711 33.1583 90.7498 32.0228C89.4286 30.8874 88.7679 29.5042 88.7679 27.8732C88.7679 26.2423 89.4286 24.8591 90.7498 23.7236C91.5963 22.9804 92.5769 22.4849 93.6917 22.2372V21.401C93.6917 21.3185 93.6814 21.2462 93.6608 21.1843C93.6401 21.1223 93.5575 21.0914 93.413 21.0914H82.079C81.3151 21.0914 80.9229 20.5856 80.9022 19.574C80.9022 18.5417 81.2945 18.0256 82.079 18.0256H95.4259C96.1691 18.0256 96.6749 18.2217 96.9433 18.614C97.2323 18.9856 97.3768 19.4088 97.3768 19.8836V22.2372C98.4917 22.4849 99.4826 22.9907 100.35 23.7546C101.671 24.89 102.332 26.2629 102.332 27.8732ZM84.7731 9.04506C84.0093 9.04506 83.617 8.52894 83.5964 7.49669C83.5964 6.4438 83.9886 5.91735 84.7731 5.91735H102.92C103.725 5.91735 104.117 6.4438 104.097 7.49669C104.097 8.52894 103.705 9.04506 102.92 9.04506H84.7731ZM92.0195 14.774C92.0195 15.2489 91.875 15.6824 91.5859 16.0746C91.3176 16.4463 90.8118 16.6321 90.0685 16.6321H84.7422C83.9577 16.6321 83.5654 16.1159 83.5654 15.0837C83.586 14.0308 83.9783 13.5044 84.7422 13.5044H88.0557C88.2002 13.5044 88.2828 13.4734 88.3034 13.4115C88.3241 13.3495 88.3344 13.2773 88.3344 13.1947V10.996C88.3344 10.005 88.9434 9.50957 90.1614 9.50957C91.4001 9.50957 92.0195 10.005 92.0195 10.996V14.774ZM97.6246 16.6321C96.8814 16.6321 96.3652 16.4463 96.0762 16.0746C95.8078 15.6824 95.6736 15.2489 95.6736 14.774V10.996C95.6736 10.005 96.2827 9.50957 97.5007 9.50957C98.7394 9.50957 99.3588 10.005 99.3588 10.996V13.1947C99.3588 13.2773 99.3691 13.3495 99.3897 13.4115C99.4104 13.4734 99.4929 13.5044 99.6375 13.5044H102.92C103.684 13.5044 104.066 14.0308 104.066 15.0837C104.086 16.1159 103.705 16.6321 102.92 16.6321H97.6246ZM98.6465 27.8732C98.6465 27.13 98.3472 26.5003 97.7484 25.9842C97.1497 25.4474 96.4272 25.179 95.5807 25.179C94.7343 25.179 94.0117 25.4474 93.413 25.9842C92.8143 26.5003 92.515 27.13 92.515 27.8732C92.515 28.6164 92.8143 29.2564 93.413 29.7932C94.0117 30.3093 94.7343 30.5674 95.5807 30.5674C96.4272 30.5674 97.1497 30.3093 97.7484 29.7932C98.3472 29.2564 98.6465 28.6164 98.6465 27.8732Z" fill="#868686"/>
<path d="M21.9172 6.37139C21.5126 6.27501 21.1229 6.13969 20.7559 5.96817C20.1217 5.69738 19.5224 5.37311 18.9676 5.00044C18.3471 4.59295 17.794 4.11897 17.3224 3.59078C16.8888 3.09957 16.6518 2.50704 16.645 1.89725C16.6463 1.65504 16.707 1.4156 16.8235 1.19369C16.94 0.971776 17.1098 0.772095 17.3224 0.606948C17.5244 0.421259 17.7696 0.271743 18.0431 0.16749C18.3166 0.0632359 18.6127 0.00642252 18.9134 0.000503872C19.3353 -0.00560969 19.7522 0.0776342 20.125 0.242436C20.4616 0.393343 20.7579 0.599664 20.9959 0.84888C21.2448 1.05669 21.4421 1.30332 21.5766 1.57468C21.7086 1.76767 21.8212 1.96943 21.9133 2.1779C21.9289 1.96807 21.9947 1.76296 22.1069 1.57468C22.2719 1.32981 22.4665 1.09959 22.6875 0.88759C22.9503 0.643494 23.262 0.439375 23.6088 0.284371C23.9865 0.0906129 24.4234 -0.00797075 24.8669 0.000503872C25.1682 0.00598766 25.465 0.0625914 25.7392 0.166859C26.0134 0.271126 26.2592 0.42087 26.4617 0.606948C26.6863 0.766406 26.8674 0.964018 26.9929 1.18655C27.1184 1.40908 27.1854 1.65139 27.1894 1.89725C27.1781 2.51328 26.9222 3.10882 26.4617 3.59078C26.0155 4.12304 25.4782 4.59797 24.8669 5.00044C24.3101 5.37248 23.7096 5.6967 23.0746 5.96817C22.7088 6.13946 22.3204 6.27478 21.9172 6.37139Z" fill="#868686"/>
<path d="M52.4974 6.37139C52.0928 6.27501 51.7031 6.13969 51.3361 5.96817C50.7019 5.69738 50.1026 5.37311 49.5478 5.00044C48.9273 4.59295 48.3742 4.11897 47.9026 3.59078C47.469 3.09957 47.232 2.50704 47.2252 1.89725C47.2265 1.65504 47.2872 1.4156 47.4037 1.19369C47.5202 0.971776 47.69 0.772095 47.9026 0.606948C48.1046 0.421259 48.3498 0.271743 48.6233 0.16749C48.8968 0.0632359 49.1929 0.00642252 49.4936 0.000503872C49.9155 -0.00560969 50.3324 0.0776342 50.7052 0.242436C51.0418 0.393343 51.3381 0.599664 51.5761 0.84888C51.825 1.05669 52.0223 1.30332 52.1568 1.57468C52.2888 1.76767 52.4014 1.96943 52.4935 2.1779C52.5091 1.96807 52.5749 1.76296 52.6871 1.57468C52.8521 1.32981 53.0467 1.09959 53.2677 0.88759C53.5305 0.643494 53.8422 0.439375 54.189 0.284371C54.5667 0.0906129 55.0036 -0.00797075 55.4471 0.000503872C55.7484 0.00598766 56.0452 0.0625914 56.3194 0.166859C56.5936 0.271126 56.8394 0.42087 57.0419 0.606948C57.2665 0.766406 57.4476 0.964018 57.5731 1.18655C57.6986 1.40908 57.7656 1.65139 57.7696 1.89725C57.7583 2.51328 57.5024 3.10882 57.0419 3.59078C56.5957 4.12304 56.0584 4.59797 55.4471 5.00044C54.8903 5.37248 54.2898 5.6967 53.6548 5.96817C53.289 6.13946 52.9006 6.27478 52.4974 6.37139Z" fill="#868686"/>
</svg>
